# AST/ASF file generated using VICON BodyLanguage
# -----------------------------------------------
:version 1.10
:name VICON
:units
  mass 1.0
  length 0.45
  angle deg
:documentation
   .ast/.asf automatically generated from VICON data using
   VICON BodyBuilder and BodyLanguage model FoxedUp or BRILLIANT.MOD
:root
   order TX TY TZ RX RY RZ
   axis XYZ
   position 0 0 0  
   orientation 0 0 0 
:bonedata
  begin
     id 1 
     name lhipjoint
     direction 0.570549 -0.739093 0.358072 
     length 2.41801 
     axis 0 0 0  XYZ
  end
  begin
     id 2 
     name lfemur
     direction 0.34202 -0.939693 0  
     length 7.44434  
     axis 0 0 20  XYZ
    dof rx ry rz
    limits (-160.0 20.0)
           (-70.0 70.0)
           (-60.0 70.0)
  end
  begin
     id 3 
     name ltibia
     direction 0.34202 -0.939693 0   
     length 7.60047   
     axis 0 0 20   XYZ
    dof rx
    limits (-10.0 170.0)
  end
  begin
     id 4 
     name lfoot
     direction 0.0909041 -0.249757 0.964032   
     length 2.03437   
     axis -90 7.62852e-016 20   XYZ
    dof rx rz
    limits (-45.0 90.0)
           (-70.0 20.0)
  end
  begin
     id 5 
     name ltoes
     direction 1.53547e-011 -4.2174e-011 1   
     length 1.02054   
     axis -90 7.62852e-016 20   XYZ
    dof rx
    limits (-90.0 20.0)
  end
  begin
     id 6 
     name rhipjoint
     direction -0.558096 -0.746754 0.361784   
     length 2.3932  
     axis 0 0 0  XYZ 
  end
  begin
     id 7 
     name rfemur
     direction -0.34202 -0.939693 0   
     length 7.3886   
     axis 0 0 -20   XYZ
    dof rx ry rz
    limits (-160.0 20.0)
           (-70.0 70.0)
           (-70.0 60.0)
  end
  begin
     id 8 
     name rtibia
     direction -0.34202 -0.939693 0   
     length 7.4839   
     axis 0 0 -20   XYZ
    dof rx
    limits (-10.0 170.0)
 end
 begin
     id 9 
     name rfoot
     direction -0.114619 -0.314914 0.942174   
     length 2.25127  
     axis -90 -7.62852e-016 -20   XYZ
    dof rx rz
    limits (-45.0 90.0)
           (-20.0 70.0)
  end
  begin
     id 10 
     name rtoes
     direction -1.53518e-011 -4.21881e-011 1   
     length 1.11821   
     axis -90 -7.62852e-016 -20   XYZ
    dof rx
    limits (-90.0 20.0)
  end
  begin
     id 11 
     name lowerback
     direction -0.00902269 0.996426 -0.0839821   
     length 2.25052   
     axis 0 0 0   XYZ
    dof rx ry rz
    limits (-20.0 45.0)
           (-30.0 30.0)
           (-30.0 30.0)
  end
  begin
     id 12 
     name upperback
     direction 0.0370973 0.999169 -0.0168941   
     length 2.24876   
     axis 0 0 0   XYZ
    dof rx ry rz
    limits (-20.0 45.0)
           (-30.0 30.0)
           (-30.0 30.0)
  end
  begin
     id 13 
     name thorax
     direction 0.0402726 0.998931 0.0227027   
     length 2.26408   
     axis 0 0 0   XYZ
    dof rx ry rz
    limits (-20.0 45.0)
           (-30.0 30.0)
           (-30.0 30.0)
  end
  begin
     id 14 
     name lowerneck
     direction -0.0733697 0.98508 0.155675   
     length 1.58204   
     axis 0 0 0   XYZ
    dof rx ry rz
    limits (-20.0 45.0)
           (-30.0 30.0)
           (-30.0 30.0)
  end
  begin
     id 15 
     name upperneck
     direction 0.0426554 0.993501 -0.105526   
     length 1.61222   
     axis 0 0 0   XYZ
    dof rx ry rz
    limits (-20.0 45.0)
           (-30.0 30.0)
           (-30.0 30.0)
  end
  begin
     id 16
     name head
     direction 0.020792 0.998384 -0.0528868  
     length 1.61527  
     axis 0 0 0   XYZ
    dof rx ry rz
    limits (-20.0 45.0)
           (-30.0 30.0)
           (-30.0 30.0)
  end
  begin
     id 17 
     name lclavicle
     direction 0.967109 0.155462 -0.201325  
     length 3.59357  
     axis 0 0 0   XYZ
    dof ry rz
    limits (-20.0 10.0)
           (0.0 20.0)
  end
  begin
     id 18 
     name lhumerus
     direction 1 -4.48968e-011 2.38195e-027   
     length 5.38154   
     axis 180 -30 -90   XYZ
    dof rx ry rz
    limits (-60.0 90.0)
           (-90.0 90.0)
           (-90.0 90.0)
  end
  begin
     id 19
     name lradius
     direction 1 -4.48961e-011 4.85371e-027   
     length 3.33312   
     axis 180 -30 -90   XYZ
    dof rx
    limits (-10.0 170.0)
  end
  begin
     id 20
     name lwrist
     direction 1 -4.48961e-011 4.76515e-027   
     length 1.66656   
     axis -3.27502e-015 90 90   XYZ
    dof ry
    limits (-180.0 0.0)
 end
  begin
     id 21 
     name lhand
     direction 1 -4.48951e-011 9.53074e-027   
     length 0.710789   
     axis -6.08098e-015 90 90   XYZ
    dof rx rz
    limits (-90.0 90.0)
           (-45.0 45.0)
  end
  begin
     id 22 
     name lfingers
     direction 1 -4.48953e-011 1.90613e-026   
     length 0.573057   
     axis -1.21619e-014 90 90   XYZ
    dof rx
    limits (0.0 90.0)
  end
  begin
     id 23
     name lthumb
     direction 0.707107 -6.34973e-011 0.707107   
     length 0.822798   
     axis -90 45 -9.86923e-015   XYZ
    dof rx rz
    limits (-45.0 45.0)
           (-45.0 45.0)
  end
  begin
     id 24 
     name rclavicle
     direction -0.9585 0.265289 -0.104398   
     length 3.42039  
     axis 0 0 0   XYZ 
    dof ry rz
    limits (-10.0 20.0)
           (-20.0 0.0)
  end
  begin
     id 25 
     name rhumerus
     direction -1 -4.48977e-011 2.21478e-027  
     length 5.16954   
     axis 180 30 90   XYZ
    dof rx ry rz
    limits (-90.0 60.0)
           (-90.0 90.0)
           (-90.0 90.0)
  end
  begin
     id 26 
     name rradius
     direction -1 -4.48967e-011 5.63677e-027   
     length 3.38287   
     axis 180 30 90   XYZ
    dof rx
    limits (-10.0 170.0)
  end
  begin
     id 27 
     name rwrist
     direction -1 -4.48967e-011 4.76501e-027   
     length 1.69144   
     axis -3.27502e-015 -90 -90   XYZ
    dof ry
    limits (-180.0 0.0)
  end
  begin
     id 28
     name rhand
     direction -1 -4.48902e-011 9.53292e-027   
     length 0.817967   
     axis -6.08098e-015 -90 -90   XYZ
    dof rx rz
    limits (-90.0 90.0)
           (-45.0 45.0)
  end
  begin
     id 29
     name rfingers
     direction -1 -4.49012e-011 1.90561e-026   
     length 0.659466   
     axis -1.21619e-014 -90 -90   XYZ
    dof rx
    limits (0.0 90.0)
  end
  begin
     id 30
     name rthumb
     direction -0.707107 -6.34944e-011 0.707107   
     length 0.946865   
     axis -90 -45 9.86923e-015   XYZ
    dof rx rz
    limits (-45.0 45.0)
           (-45.0 45.0)
  end
:hierarchy
  begin
    root lhipjoint rhipjoint lowerback
    lhipjoint lfemur
    lfemur ltibia
    ltibia lfoot
    lfoot ltoes
    rhipjoint rfemur
    rfemur rtibia
    rtibia rfoot
    rfoot rtoes
    lowerback upperback
    upperback thorax
    thorax lowerneck lclavicle rclavicle
    lowerneck upperneck
    upperneck head
    lclavicle lhumerus
    lhumerus lradius
    lradius lwrist
    lwrist lhand lthumb
    lhand lfingers
    rclavicle rhumerus
    rhumerus rradius
    rradius rwrist
    rwrist rhand rthumb
    rhand rfingers
  end

#!OML:ASF F:\twosubjects\two\wednesday\Session 1\Justin1.ASF
:FULLY-SPECIFIED
:DEGREES
33
root 1.93959 17.6745 20.1149 -173.23 13.5765 -172.114
lowerback -1.67967 5.95085 6.74589
upperback -0.17375 7.92274 2.22886
thorax 1.34118 4.04157 -1.17226
lowerneck -13.8279 -4.66468 -12.1113
upperneck 16.5382 -5.81367 9.18626
head 8.01372 -2.79006 4.40085
rclavicle -2.28602e-014 -1.17283e-014
rhumerus 6.26674 0.416143 -81.344
rradius 46.6634
rwrist -27.2005
rhand -18.1012 20.8874
rfingers 7.12502
rthumb 8.1727 -8.93452
lclavicle -2.28602e-014 -1.17283e-014
lhumerus -59.5418 26.9656 50.0897
lradius 21.1712
lwrist -18.1556
lhand 0.368022 40.5522
lfingers 7.12502
lthumb 25.9428 68.8019
rfemur 19.6576 4.11602 27.2975
rtibia 9.36785
rfoot -1.04762 9.53844
rtoes -3.79874
lfemur -37.4628 2.87479 -10.0712
ltibia 25.9104
lfoot -10.3255 7.4184
ltoes -19.0335
34
root 1.92036 17.6538 19.932 -173.397 13.7446 -172.373
lowerback -1.49755 6.05387 6.60833
upperback -0.350021 8.07812 2.06791
thorax 1.07344 4.10488 -1.28853
lowerneck -13.3866 -4.66371 -11.8553
upperneck 16.3999 -5.90173 9.07794
head 7.88754 -2.83991 4.31354
rclavicle -9.7156e-015 -4.07509e-014
rhumerus 5.0573 0.360057 -81.4976
rradius 46.1326
rwrist -27.1173
rhand -17.9363 20.9055
rfingers 7.12502
rthumb 8.33184 -8.91017
lclavicle -9.7156e-015 -4.07509e-014
lhumerus -59.1319 26.6857 50.4468
lradius 21.0906
lwrist -18.3888
lhand 0.462387 40.5989
lfingers 7.12502
lthumb 26.0332 68.8353
rfemur 19.5874 4.31998 26.8107
rtibia 10.8277
rfoot -0.928902 9.42182
rtoes -5.13772
lfemur -36.2199 2.30267 -10.2231
ltibia 26.2065
lfoot -10.8104 7.04136
ltoes -14.1045
35
root 1.9012 17.6222 19.7434 -173.161 13.9011 -172.77
lowerback -1.88911 6.08877 6.1893
upperback -0.364088 8.08902 1.94042
thorax 1.24001 4.10809 -1.14866
lowerneck -13.9555 -4.68372 -11.6441
upperneck 16.3926 -5.83763 8.85499
head 7.96689 -2.79233 4.20385
rclavicle 1.92573e-015 1.19271e-014
rhumerus 4.37803 0.634731 -81.5856
rradius 45.642
rwrist -27.2482
rhand -17.8557 20.651
rfingers 7.12502
rthumb 8.40963 -9.1616
lclavicle 1.92573e-015 1.19271e-014
lhumerus -58.4179 27.1049 50.8436
lradius 20.8114
lwrist -18.6347
lhand 0.347266 41.1394
lfingers 7.12502
lthumb 25.923 69.3919
rfemur 19.6159 4.47209 26.1225
rtibia 11.2436
rfoot -0.18802 9.34845
rtoes -4.54279
lfemur -35.6767 2.57256 -10.9596
ltibia 26.7402
lfoot -11.1952 6.29712
ltoes -12.7206
36
root 1.88466 17.5746 19.5529 -172.921 13.9279 -173.166
lowerback -2.32962 6.02244 5.76286
upperback -0.473235 7.97402 1.83909
thorax 1.3226 4.04625 -0.986839
lowerneck -14.2262 -4.62409 -11.6331
upperneck 16.4118 -5.72436 8.88693
head 8.00954 -2.72552 4.22429
rclavicle -3.87133e-014 -2.36554e-014
rhumerus 3.36006 0.710484 -81.9122
rradius 45.3404
rwrist -27.1392
rhand -17.2932 20.4703
rfingers 7.12502
rthumb 8.95247 -9.31973
lclavicle -3.87133e-014 -2.36554e-014
lhumerus -58.064 27.7479 50.8175
lradius 20.4938
lwrist -19.1639
lhand 0.0118404 41.4257
lfingers 7.12502
lthumb 25.6017 69.7249
rfemur 19.7957 4.63192 25.5336
rtibia 11.265
rfoot 0.856498 9.24227
rtoes -3.91316
lfemur -35.3427 3.41832 -12.1209
ltibia 27.2563
lfoot -10.3091 6.02372
ltoes -19.2686
37
root 1.86726 17.633 19.3473 -172.934 13.7767 -173.66
lowerback -2.32653 5.91817 5.36167
upperback -0.87243 7.86 1.67956
thorax 0.871539 3.97235 -0.970352
lowerneck -13.6065 -4.49412 -11.5208
upperneck 16.4775 -5.63656 8.70283
head 7.90139 -2.71976 4.16033
rclavicle -2.34814e-015 1.13307e-014
rhumerus 1.59409 0.487234 -82.3448
rradius 45.0577
rwrist -26.8474
rhand -16.6716 20.5476
rfingers 7.12502
rthumb 9.55226 -9.21586
lclavicle -2.34814e-015 1.13307e-014
lhumerus -58.1884 27.839 50.6376
lradius 20.3516
lwrist -19.5535
lhand -0.290938 41.3794
lfingers 7.12502
lthumb 25.3117 69.7199
rfemur 19.9696 4.28771 24.7452
rtibia 11.4143
rfoot 2.12617 9.39651
rtoes -4.62139
lfemur -35.4049 3.78577 -13.0802
ltibia 27.6201
lfoot -7.08537 6.15672
ltoes -18.1694
38
root 1.84131 17.6492 19.1493 -172.949 13.3813 -173.787
lowerback -2.30456 5.81989 5.41867
upperback -1.08985 7.74117 1.59012
thorax 0.647851 3.90617 -1.11511
lowerneck -13.3362 -4.48021 -11.284
upperneck 16.5056 -5.66708 8.46848
head 7.8516 -2.75172 4.04063
rclavicle 9.2497e-015 8.94531e-015
rhumerus 0.167264 -0.0895313 -82.7352
rradius 44.4971
rwrist -26.3355
rhand -16.4164 20.4752
rfingers 7.12502
rthumb 9.7984 -9.27681
lclavicle 9.2497e-015 8.94531e-015
lhumerus -57.7998 28.1423 50.6599
lradius 20.0386
lwrist -20.0131
lhand -0.40411 41.172
lfingers 7.12502
lthumb 25.2033 69.5278
rfemur 20.0802 3.61596 24.2815
rtibia 11.9038
rfoot 3.55798 9.66671
rtoes -5.40975
lfemur -35.4165 4.23525 -13.6517
ltibia 27.7082
lfoot -4.16829 6.55387
ltoes -14.3767
39
root 1.8222 17.6375 18.962 -173.022 12.8264 -174.105
lowerback -2.09402 5.60832 5.17839
upperback -1.34517 7.48798 1.46228
thorax 0.239601 3.76745 -1.16884
lowerneck -13.4877 -4.43535 -11.218
upperneck 16.9103 -5.69432 8.6686
head 8.018 -2.75243 4.09648
rclavicle -3.40357e-014 -2.84262e-014
rhumerus -1.29748 -0.766032 -83.2861
rradius 43.9287
rwrist -25.6174
rhand -16.2373 20.0542
rfingers 7.12502
rthumb 9.97118 -9.68965
lclavicle -3.40357e-014 -2.84262e-014
lhumerus -57.3569 28.5426 50.6124
lradius 19.577
lwrist -20.5489
lhand -0.453499 40.8158
lfingers 7.12502
lthumb 25.1559 69.1783
rfemur 20.2484 3.249 23.8739
rtibia 12.3233
rfoot 5.24767 9.43772
rtoes -5.67067
lfemur -35.428 4.47747 -14.3389
ltibia 27.7663
lfoot -2.22669 6.66189
ltoes -11.7957
